<!-- icon666.com - MILLIONS vector ICONS FREE --><svg fill="none" viewBox="0 0 24 24" xmlns="http://www.w3.org/2000/svg"><g clip-rule="evenodd" fill="rgb(0,0,0)" fill-rule="evenodd"><path d="m12 4c.5523 0 1 .44772 1 1v14c0 .5523-.4477 1-1 1s-1-.4477-1-1v-14c0-.55228.4477-1 1-1z" fill="rgb(0,0,0)" style="fill: rgb(255, 255, 255);"></path><path d="m11.2929 4.29289c.3905-.39052 1.0237-.39052 1.4142 0l7 7.00001c.3905.3905.3905 1.0237 0 1.4142s-1.0237.3905-1.4142 0l-6.2929-6.29289-6.29289 6.29289c-.39053.3905-1.02369.3905-1.41422 0-.39052-.3905-.39052-1.0237 0-1.4142z" fill="rgb(0,0,0)" style="fill: rgb(255, 255, 255);"></path></g></svg>