<svg width="99" height="99" viewBox="0 0 99 99" fill="none" xmlns="http://www.w3.org/2000/svg">
<circle cx="49.5" cy="49.5" r="49.5" fill="black"/>
<path d="M21.4474 30.8296C21.633 30.203 21.7755 29.5597 22.0119 28.9536C22.7036 27.1753 24.5062 25.3356 27.3861 25.344C41.8269 25.3864 56.2684 25.4061 70.7092 25.3326C74.3166 25.3144 76.4252 28.1595 76.6934 30.8622C76.7411 31.3433 76.7555 31.8298 76.7555 32.3139C76.7593 40.2416 76.754 48.1701 76.7722 56.0978C76.773 56.4069 76.8927 56.816 77.1086 57.0093C78.4982 58.2488 78.3944 60.1703 77.1768 61.2046C77.1351 61.2402 77.1147 61.3 77.092 61.3357C77.3382 61.938 77.5579 62.5381 77.8345 63.1102C77.911 63.2693 78.1474 63.4329 78.324 63.4496C80.0545 63.6125 80.9903 64.6081 80.9956 66.3349C80.9978 66.9554 81.0054 67.576 80.9933 68.1958C80.9645 69.6581 79.8886 70.7817 78.4315 70.8196C78.0292 70.8302 77.8193 70.9378 77.7481 71.328C77.7246 71.4591 77.6761 71.5932 77.6095 71.7092C77.1844 72.4441 77.0518 73.048 77.7314 73.8299C78.4528 74.6604 78.2346 75.9893 77.4784 76.8296C76.9344 77.4335 76.3578 78.0131 75.7562 78.5594C74.728 79.4921 73.2361 79.483 72.2261 78.523C71.9147 78.2268 71.6699 78.1783 71.3373 78.4033C71.3214 78.4139 71.3025 78.42 71.2835 78.4253C70.3197 78.7117 69.6189 79.0951 69.509 80.3324C69.4151 81.3863 68.2513 82.0864 67.142 82.116C66.4252 82.1349 65.7077 82.1296 64.9902 82.1198C63.5331 82.1001 62.439 81.1098 62.3504 79.6459C62.3201 79.1459 62.1223 78.9867 61.6973 78.8094C60.832 78.448 60.1273 78.0692 59.2007 78.9087C58.4331 79.6035 57.1186 79.3171 56.3109 78.5837C55.7093 78.0366 55.1258 77.4646 54.5818 76.8607C53.6446 75.8196 53.6574 74.3497 54.6242 73.3329C54.922 73.0192 54.9576 72.7881 54.7402 72.4403C54.5977 72.2138 54.5144 71.9486 54.4144 71.697C54.0719 70.8371 54.0742 70.8363 53.1202 70.8363C50.213 70.8363 47.305 70.8393 44.3977 70.834C43.6575 70.8325 43.1733 70.465 43.0786 69.8649C42.9566 69.0876 43.4802 68.5064 44.3379 68.5026C46.3344 68.4943 48.3309 68.4996 50.3274 68.4996C50.5358 68.4996 50.7449 68.4996 51.023 68.4996C51.023 67.751 51.0199 67.06 51.0237 66.3682C51.0336 64.5975 51.9632 63.611 53.7279 63.4488C53.9029 63.4329 54.1348 63.2602 54.2113 63.0996C54.4757 62.5427 54.6841 61.9585 54.9266 61.3508C54.8046 61.2167 54.6576 61.0644 54.522 60.9045C53.64 59.8665 53.6552 58.4072 54.5803 57.4078C55.0804 56.8676 55.6077 56.3516 56.1389 55.8417C57.2118 54.8112 58.7052 54.7771 59.7993 55.7886C60.0963 56.0629 60.3236 56.1281 60.6464 55.8947C60.7539 55.8167 60.8858 55.7583 61.0146 55.7265C61.8579 55.5189 62.3443 55.1347 62.4209 54.1255C62.5004 53.0822 63.4953 52.3086 64.5537 52.2176C65.3811 52.1464 66.2199 52.1464 67.0511 52.179C68.5468 52.2389 69.5378 53.2049 69.6424 54.7051C69.6697 55.0953 69.7826 55.2802 70.1622 55.3939C70.6228 55.5318 71.0486 55.781 71.5055 55.9356C71.6646 55.9894 71.9389 55.9773 72.0427 55.875C72.6784 55.2507 73.4301 54.9787 74.3529 55.0294C74.3529 51.1076 74.3529 47.2033 74.3529 43.2542C57.5179 43.2542 40.6866 43.2542 23.7833 43.2542C23.7833 43.4777 23.7833 43.6838 23.7833 43.8899C23.7833 50.6545 23.7712 57.4199 23.8015 64.1846C23.8045 64.9218 23.9424 65.703 24.216 66.3841C24.7767 67.7843 25.8314 68.539 27.4164 68.5079C29.4705 68.4678 31.5254 68.4966 33.5802 68.4988C34.4705 68.5003 35.0017 68.9466 34.9933 69.6732C34.985 70.3961 34.4493 70.8325 33.5545 70.8333C31.558 70.8363 29.5577 70.7598 27.5657 70.8507C24.0038 71.0121 21.9922 68.2852 21.5572 65.7515C21.5353 65.6227 21.4837 65.4984 21.4459 65.3726C21.4474 53.858 21.4474 42.3442 21.4474 30.8296ZM23.8152 40.816C40.6805 40.816 57.5126 40.816 74.3999 40.816C74.3999 40.3 74.4007 39.8196 74.3999 39.3392C74.3946 36.6835 74.437 34.0271 74.3703 31.3729C74.312 29.0635 72.8322 27.6981 70.5524 27.6981C68.6528 27.6981 66.7533 27.6981 64.8538 27.6981C52.3512 27.6981 39.8486 27.7027 27.3452 27.6898C26.2526 27.689 25.3813 28.061 24.7183 28.9157C24.0508 29.7772 23.7864 30.7736 23.7864 31.8502C23.7856 34.6613 23.7856 37.4715 23.7871 40.2825C23.7864 40.4515 23.8045 40.6212 23.8152 40.816ZM75.8031 75.0907C75.7046 74.9642 75.6311 74.852 75.5402 74.7573C75.3258 74.5331 75.1015 74.3194 74.8848 74.0974C74.3173 73.514 74.3029 73.1124 74.6613 72.3744C75.0727 71.5258 75.466 70.659 75.766 69.7664C76.1221 68.7072 76.3275 68.4988 77.4488 68.4988C78.799 68.4988 78.6551 68.5988 78.6573 67.2729C78.6596 65.8575 78.6581 65.8575 77.2329 65.8166C76.4138 65.7931 76.1123 65.4999 75.8319 64.6983C75.5145 63.7898 75.1568 62.8882 74.7302 62.0259C74.2817 61.1205 74.2817 60.7765 74.9826 60.0688C75.8925 59.1497 75.8925 59.1497 74.9856 58.2428C74.015 57.2722 74.015 57.2722 73.0361 58.2231C72.3981 58.8429 72.0018 58.8542 71.2184 58.4792C70.3167 58.0473 69.387 57.6616 68.4414 57.3351C67.6012 57.0456 67.3185 56.7441 67.3079 55.8257C67.2928 54.5278 67.2928 54.5278 66.0206 54.5278C64.6333 54.5278 64.6333 54.5278 64.6197 55.8947C64.6106 56.7782 64.3386 57.0668 63.5097 57.3517C62.6179 57.6578 61.7336 58.0094 60.8918 58.4314C59.9637 58.8974 59.6242 58.8959 58.8885 58.1731C57.8679 57.1699 58.1255 57.1722 57.0951 58.192C56.1154 59.1618 56.1184 59.1656 57.0655 60.1393C57.7141 60.806 57.7217 61.1599 57.3163 62.0047C56.9003 62.8715 56.5306 63.7671 56.2192 64.6771C55.9328 65.5151 55.6198 65.8045 54.7114 65.8166C53.3832 65.834 53.3771 65.834 53.3847 67.1327C53.393 68.7057 53.2081 68.4822 54.7371 68.4981C55.6562 68.5072 55.9373 68.7708 56.2283 69.6384C56.5215 70.5135 56.8662 71.3803 57.2792 72.2054C57.7596 73.1639 57.755 73.4988 57.0034 74.2512C55.9949 75.262 56.032 74.996 57.0132 75.9916C58.0073 77.0008 58.0134 76.9948 59.0423 76.0037C59.6341 75.4339 60.0341 75.4142 60.7668 75.7696C61.6162 76.181 62.4792 76.5811 63.3725 76.8789C64.4598 77.241 64.675 77.4547 64.6788 78.6041C64.6833 79.9248 64.5545 79.7823 65.8623 79.7853C67.3436 79.7891 67.3436 79.7861 67.367 78.3313C67.3678 78.273 67.3686 78.2154 67.3693 78.1571C67.3822 77.5577 67.7019 77.213 68.2505 77.0001C69.309 76.5879 70.3645 76.1636 71.4002 75.6976C71.9692 75.4415 72.4451 75.4862 72.8891 75.9098C73.1558 76.1636 73.4164 76.4235 73.6718 76.6887C73.8832 76.9092 74.0779 76.9516 74.3105 76.7106C74.7265 76.278 75.1599 75.8613 75.5781 75.4302C75.666 75.3377 75.7221 75.2142 75.8031 75.0907Z" fill="white"/>
<path d="M47.6808 55.8498C46.7216 54.7709 45.7972 53.7344 44.8758 52.6941C44.5046 52.275 44.4144 51.8 44.6834 51.3014C44.9418 50.8241 45.3774 50.6097 45.901 50.7294C46.1639 50.7892 46.4435 50.9574 46.6276 51.1575C47.7126 52.3402 48.7825 53.5381 49.8357 54.7497C50.4282 55.4308 50.4403 56.24 49.8584 56.9136C48.7969 58.1433 47.7126 59.3541 46.6215 60.5581C46.1283 61.1021 45.4039 61.1423 44.916 60.6983C44.4205 60.2482 44.3955 59.5519 44.8902 58.9859C45.7934 57.9532 46.714 56.9348 47.6808 55.8498Z" fill="white"/>
<path d="M30.6949 55.8675C31.5307 56.807 32.352 57.7306 33.1726 58.655C33.3143 58.8141 33.4635 58.9687 33.5848 59.1422C33.9485 59.662 33.8727 60.3181 33.4158 60.7159C32.9657 61.1076 32.2747 61.1076 31.8345 60.6583C31.3064 60.1188 30.8207 59.5377 30.3184 58.974C29.7251 58.3087 29.1227 57.6511 28.5431 56.9744C27.9157 56.2418 27.9135 55.4439 28.5469 54.7188C29.5925 53.5224 30.6502 52.3366 31.7163 51.1584C32.2209 50.6008 32.9165 50.5447 33.4188 50.9842C33.9348 51.435 33.9522 52.1525 33.4378 52.7405C32.6467 53.6444 31.8413 54.5362 31.0435 55.4348C30.9313 55.5613 30.8298 55.7 30.6949 55.8675Z" fill="white"/>
<path d="M41.5003 51.16C41.2776 52.092 41.0207 53.1641 40.7654 54.237C40.2509 56.4017 39.7372 58.5672 39.2227 60.7327C39.2091 60.7887 39.1886 60.844 39.1727 60.8993C38.9606 61.6282 38.39 62.0116 37.7498 61.8578C37.0974 61.7002 36.7352 61.1077 36.905 60.3705C37.3831 58.2959 37.8839 56.2274 38.3787 54.1567C38.6575 52.9898 38.9242 51.82 39.2326 50.6607C39.3925 50.0599 39.9638 49.7235 40.5184 49.8212C41.1079 49.9258 41.511 50.4137 41.5003 51.16Z" fill="white"/>
<path d="M39.025 68.5019C39.697 68.4905 40.2183 68.9906 40.2229 69.6513C40.2274 70.3082 39.7008 70.8356 39.0447 70.8325C38.4249 70.8295 37.8899 70.3158 37.8649 69.6998C37.8407 69.0588 38.3696 68.5125 39.025 68.5019Z" fill="white"/>
<path d="M61.554 38.2626C59.7712 38.2626 57.9876 38.2974 56.2063 38.2535C54.2105 38.2042 52.6179 36.6729 52.408 34.6848C52.214 32.8451 53.446 31.0524 55.2781 30.5523C55.6653 30.4463 56.0797 30.3947 56.4821 30.3932C59.8538 30.3811 63.2255 30.3735 66.5972 30.3917C68.2982 30.4008 69.5946 31.1532 70.3046 32.7216C70.9706 34.1938 70.7531 35.6046 69.7333 36.8555C68.9521 37.8133 67.8989 38.2573 66.6707 38.2656C64.9659 38.277 63.2604 38.2686 61.5548 38.2686C61.554 38.2664 61.554 38.2641 61.554 38.2626ZM61.5722 32.7436C59.8485 32.7436 58.124 32.7269 56.4003 32.7504C55.4221 32.764 54.7371 33.4513 54.7417 34.3332C54.747 35.2189 55.4334 35.9122 56.4071 35.9168C59.8167 35.9342 63.2263 35.9274 66.6351 35.9213C67.3049 35.9198 67.8406 35.641 68.149 35.0242C68.6899 33.9407 67.9239 32.7709 66.6275 32.7496C64.9432 32.7216 63.2573 32.7428 61.5722 32.7436Z" fill="white"/>
<path d="M46.4564 34.3574C46.4458 36.5055 44.6766 38.2633 42.527 38.2641C40.36 38.2641 38.5673 36.4585 38.5908 34.2991C38.6143 32.1472 40.3858 30.3879 42.527 30.3894C44.6993 30.3917 46.4677 32.1775 46.4564 34.3574ZM44.1166 34.3173C44.1106 33.4482 43.3786 32.7375 42.502 32.7511C41.6405 32.7648 40.9601 33.4505 40.954 34.3127C40.9472 35.1954 41.6549 35.9183 42.5262 35.9175C43.3892 35.9175 44.1227 35.1795 44.1166 34.3173Z" fill="white"/>
<path d="M28.4083 34.3499C28.3999 32.1639 30.1676 30.3819 32.3384 30.3894C34.4925 30.3962 36.2435 32.1495 36.2541 34.3082C36.2647 36.4964 34.5031 38.2686 32.3225 38.2648C30.1676 38.2603 28.4166 36.5093 28.4083 34.3499ZM33.9053 34.3468C33.9136 33.4619 33.2135 32.7511 32.3316 32.7496C31.4769 32.7481 30.7707 33.4331 30.7495 34.2839C30.7275 35.1568 31.4284 35.8971 32.2975 35.9183C33.1605 35.9402 33.897 35.2197 33.9053 34.3468Z" fill="white"/>
<path d="M58.8552 67.1462C58.8552 63.1858 62.0632 59.9861 66.0259 59.9937C69.9795 60.002 73.2012 63.2328 73.1853 67.1728C73.1694 71.0802 69.9371 74.3056 66.029 74.3132C62.0875 74.3215 58.8552 71.0923 58.8552 67.1462ZM61.2055 67.169C61.2169 69.8186 63.3808 71.9735 66.0221 71.9666C68.6589 71.9591 70.8289 69.7875 70.835 67.1508C70.841 64.4837 68.6612 62.3251 65.9752 62.3395C63.3195 62.3531 61.1941 64.5057 61.2055 67.169Z" fill="white"/>
</svg>
