<svg width="99" height="99" viewBox="0 0 99 99" fill="none" xmlns="http://www.w3.org/2000/svg">
<circle cx="49.5" cy="49.5" r="49.5" fill="white"/>
<path d="M43.9339 74.2129C43.6265 74.2129 43.4002 74.2129 43.1739 74.2129C36.8807 74.2129 30.5883 74.2153 24.2951 74.2113C22.5601 74.2105 21.3764 73.3205 21.0602 71.787C21.0065 71.5269 21.0024 71.2541 21.0024 70.9869C21 58.593 20.9992 46.1992 21.0008 33.8054C21.0008 31.8585 22.2455 30.6018 24.1924 30.5794C25.0928 30.5689 25.994 30.5777 26.9851 30.5777C26.9851 30.3659 26.9851 30.1829 26.9851 30.0007C26.9851 28.6766 26.9755 27.3533 26.9883 26.0292C27.0043 24.3921 28.1583 23.1626 29.7962 23.0214C30.025 23.0013 30.2561 23.0005 30.4864 23.0005C44.6642 22.9997 58.8428 22.9989 73.0205 23.0053C73.4579 23.0053 73.9113 23.0262 74.3294 23.1394C75.6206 23.4877 76.4841 24.636 76.4921 25.9971C76.5066 28.3757 76.497 30.7551 76.497 33.1337C76.497 43.1682 76.4978 53.2018 76.497 63.2363C76.497 65.4584 75.3189 66.6293 73.0807 66.6357C72.2413 66.6381 71.4011 66.6357 70.5119 66.6357C70.5119 68.1011 70.5127 69.4974 70.5119 70.8946C70.5095 73.0084 69.317 74.2065 67.1944 74.2121C64.8727 74.2185 62.5511 74.2137 60.2303 74.2137C60.024 74.2137 59.8178 74.2137 59.5473 74.2137C59.5473 75.4448 59.5473 76.61 59.5473 77.7752C59.5473 77.9863 59.5546 78.1973 59.5449 78.4084C59.5185 79.0215 59.2705 79.2831 58.6646 79.3104C58.2625 79.3289 57.8589 79.316 57.456 79.316C53.3504 79.316 49.2448 79.3168 45.1393 79.3152C44.1273 79.3152 43.9347 79.1186 43.9339 78.0994C43.9331 76.8347 43.9339 75.5699 43.9339 74.2129ZM58.996 65.0042C58.9968 65.0395 58.9968 65.0756 58.9976 65.111C59.1629 65.1206 59.3283 65.1374 59.4928 65.1374C64.0397 65.139 68.5867 65.1398 73.1329 65.1374C74.4763 65.1366 74.9987 64.603 74.9987 63.2443C74.9995 53.7475 74.9987 44.2516 74.9987 34.7548C74.9987 34.5501 74.9987 34.3463 74.9987 34.0959C74.6833 34.0959 74.4377 34.0959 74.1922 34.0959C65.0798 34.0959 55.9666 34.0927 46.8542 34.1031C46.1937 34.1039 45.6777 33.9073 45.2259 33.4186C44.3143 32.4323 43.3802 31.4669 42.4268 30.5216C42.2494 30.3458 41.9413 30.215 41.6917 30.2118C39.7545 30.1869 37.8164 30.1982 35.8792 30.1982C35.5799 30.1982 35.2797 30.1982 34.9363 30.1982C34.9363 31.0336 34.9427 31.7975 34.9347 32.5615C34.925 33.5422 34.3865 34.0831 33.3939 34.0935C32.2431 34.1047 31.0915 34.0967 29.9407 34.0967C29.4688 34.0967 28.9961 34.0967 28.4834 34.0967C28.4834 34.323 28.4834 34.4731 28.4834 34.6232C28.4834 44.2154 28.4825 53.8077 28.485 63.4C28.485 64.5813 29.0515 65.1358 30.2713 65.1366C34.8568 65.1414 39.4415 65.139 44.027 65.1366C44.1803 65.1366 44.3335 65.1077 44.6096 65.0797C44.4178 64.9753 44.3568 64.9328 44.2894 64.9079C42.7992 64.3446 42.4982 63.5461 43.2638 62.1682C45.6922 57.7962 48.1254 53.4265 50.5481 49.0505C50.8226 48.5546 51.1251 48.1461 51.7607 48.1509C52.3754 48.1557 52.6571 48.565 52.9195 49.0385C55.3422 53.4137 57.773 57.7849 60.2006 62.1577C60.975 63.5525 60.6797 64.3542 59.1934 64.9007C59.1252 64.9272 59.0618 64.9697 58.996 65.0042ZM26.9851 32.1659C26.8848 32.1298 26.8318 32.0953 26.7796 32.0945C25.9932 32.0881 25.2067 32.0832 24.4211 32.084C23.028 32.0856 22.4991 32.6089 22.4991 33.9844C22.4983 46.2602 22.4991 58.5361 22.4991 70.8119C22.4991 72.2035 23.0103 72.7154 24.4042 72.7154C30.6958 72.7163 36.9866 72.7163 43.2783 72.7163C43.4813 72.7163 43.6843 72.7163 43.9355 72.7163C43.9355 71.8158 43.9195 70.9941 43.9395 70.1739C43.9644 69.1427 44.5807 68.5489 45.6103 68.5304C45.9482 68.524 46.2868 68.5296 46.6849 68.5296C46.6504 68.1797 46.6415 67.9141 46.5958 67.6541C46.4192 66.6502 46.4152 66.651 45.3904 66.651C40.4037 66.651 35.4162 66.6526 30.4294 66.6502C28.1615 66.6485 26.9867 65.4745 26.9859 63.2187C26.9859 53.0911 26.9859 42.9635 26.9859 32.836C26.9851 32.6089 26.9851 32.3826 26.9851 32.1659ZM28.4874 32.5567C30.1718 32.5567 31.7897 32.5567 33.3955 32.5567C33.4171 32.4773 33.4356 32.4403 33.4356 32.4034C33.4396 31.7125 33.4388 31.0223 33.4428 30.3314C33.45 29.2247 33.9596 28.7007 35.0542 28.6983C37.3566 28.6935 39.6582 28.7047 41.9605 28.6911C42.5191 28.6879 42.9556 28.8724 43.3368 29.2753C44.2589 30.2511 45.2099 31.1997 46.1231 32.1844C46.4096 32.4925 46.7009 32.6089 47.1214 32.6081C56.1953 32.596 65.2692 32.5992 74.3439 32.5992C74.5477 32.5992 74.7515 32.5992 74.9987 32.5992C74.9987 30.5304 74.9987 28.5378 74.9987 26.546C74.9987 24.9835 74.5324 24.5108 72.9884 24.5108C58.8307 24.5108 44.673 24.5108 30.5145 24.5108C30.3034 24.5108 30.0916 24.5076 29.8821 24.5269C29.0876 24.5999 28.5026 25.1577 28.4946 25.9473C28.4729 28.1333 28.4874 30.3193 28.4874 32.5567ZM50.9839 51.6771C50.9333 51.6675 50.8827 51.657 50.8322 51.6474C48.6831 55.5219 46.5332 59.3963 44.3777 63.2821C46.8751 64.1865 48.1318 65.9255 48.2112 68.4983C50.5922 68.4983 52.9243 68.4983 55.2837 68.4983C55.3735 65.8894 56.6431 64.164 59.1196 63.3238C56.9472 59.4052 54.7933 55.5195 52.6386 51.633C52.5897 51.6474 52.5407 51.6626 52.4918 51.6771C52.4918 52.6866 52.5038 53.6962 52.4853 54.7049C52.4789 55.0476 52.5696 55.2442 52.893 55.424C53.8664 55.9649 54.287 57.0555 53.9796 58.0794C53.673 59.1026 52.7349 59.7984 51.7021 59.7703C50.5938 59.7398 49.7617 59.0826 49.4856 58.0201C49.2168 56.9848 49.6493 55.9697 50.577 55.4031C50.7367 55.3052 50.9614 55.1319 50.9654 54.9882C50.9983 53.8856 50.9839 52.7813 50.9839 51.6771ZM45.4915 77.7592C49.6613 77.7592 53.8247 77.7592 58.0162 77.7592C58.0162 75.1735 58.0162 72.6328 58.0162 70.0576C53.8392 70.0576 49.6926 70.0576 45.4915 70.0576C45.4915 72.6368 45.4915 75.1783 45.4915 77.7592ZM69 66.7063C68.9085 66.6774 68.8547 66.6461 68.801 66.6461C65.0429 66.6413 61.2856 66.6365 57.5275 66.6461C57.3894 66.6461 57.1623 66.7585 57.1302 66.8652C56.9745 67.3796 56.871 67.9093 56.7282 68.5216C57.1142 68.5216 57.3405 68.5216 57.5668 68.5216C59.0129 68.5248 59.5449 69.0536 59.5473 70.4917C59.5481 71.2132 59.5473 71.9346 59.5473 72.6914C62.3192 72.6914 65.018 72.7082 67.7168 72.6793C68.3813 72.6721 68.9687 72.0823 68.9872 71.4034C69.0289 69.8369 69 68.2688 69 66.7063ZM51.7543 58.2632C52.2125 58.2488 52.5704 57.8652 52.5624 57.3981C52.5544 56.9367 52.1643 56.5619 51.7125 56.5812C51.2567 56.6004 50.9068 56.984 50.9156 57.4551C50.9253 57.9567 51.2591 58.2785 51.7543 58.2632Z" fill="black"/>
<path d="M38.899 53.5855C40.8098 53.8479 40.9783 54.0445 40.9783 55.9729C40.9783 56.7594 40.9919 57.5466 40.9735 58.3331C40.9478 59.3851 40.4053 59.9164 39.3556 59.926C38.3389 59.9356 37.3221 59.9356 36.3053 59.926C35.2332 59.9156 34.6979 59.3659 34.6907 58.2761C34.6851 57.2786 34.6843 56.2803 34.6907 55.2828C34.6979 54.205 35.2292 53.6761 36.3214 53.6408C37.2748 53.6095 37.2716 53.6087 37.5637 52.6947C38.7963 48.8435 41.1982 45.9545 44.7284 43.9948C44.8263 43.9402 44.9218 43.8824 45.1393 43.7564C44.8841 43.7291 44.7525 43.7035 44.6209 43.7035C42.5873 43.7011 40.553 43.7075 38.5194 43.6962C38.1824 43.6946 37.9778 43.754 37.8116 44.1063C37.2378 45.3189 35.8022 45.9312 34.4596 45.591C33.1379 45.2563 32.219 44.0381 32.2455 42.6554C32.272 41.3 33.1892 40.1588 34.4821 39.8731C35.9105 39.5578 37.3293 40.1596 37.8197 41.4533C38.0724 42.1193 38.4095 42.2164 39.0266 42.21C41.9814 42.1803 44.9362 42.1964 47.891 42.1964C48.0997 42.1964 48.3083 42.1964 48.6005 42.1964C48.6005 41.771 48.5844 41.3931 48.6037 41.0159C48.6454 40.1877 49.1389 39.6244 49.9655 39.5907C51.134 39.5433 52.3064 39.5441 53.4748 39.5866C54.3255 39.6179 54.8351 40.1957 54.8672 41.0448C54.8808 41.4043 54.8696 41.7646 54.8696 42.1651C55.1168 42.1779 55.3021 42.1948 55.4883 42.1956C58.5964 42.1972 61.7053 42.1916 64.8134 42.2036C65.2058 42.2052 65.4008 42.1209 65.5437 41.702C65.9955 40.3779 67.314 39.6171 68.675 39.8154C70.1661 40.032 71.1772 41.0745 71.2928 42.5134C71.4043 43.9041 70.5641 45.1351 69.2271 45.538C67.8348 45.9569 66.4489 45.3879 65.7274 44.1312C65.6239 43.9506 65.3952 43.7219 65.2218 43.7195C62.9997 43.6914 60.7776 43.7011 58.3934 43.7011C58.6253 43.8632 58.7288 43.949 58.8444 44.014C62.4982 46.0692 64.9225 49.1043 66.0821 53.1329C66.1929 53.5164 66.3333 53.6882 66.741 53.6448C67.0243 53.6152 67.3172 53.6352 67.6021 53.6665C68.35 53.7492 68.874 54.2868 68.8901 55.0428C68.9142 56.2128 68.9174 57.3837 68.8877 58.5537C68.8684 59.3201 68.289 59.8923 67.5194 59.9108C66.3494 59.9381 65.1785 59.9365 64.0085 59.9116C63.2678 59.8963 62.6876 59.4148 62.653 58.6805C62.5929 57.4182 62.5945 56.1495 62.6522 54.8871C62.6851 54.1745 63.23 53.7363 63.9539 53.6585C64.1625 53.636 64.372 53.6264 64.5823 53.6111C63.8319 49.5954 59.7857 45.1319 54.9555 44.1424C54.9306 44.2877 54.9065 44.4321 54.8824 44.5766C54.7556 45.3341 54.2412 45.8317 53.4805 45.8486C52.3297 45.8734 51.1773 45.8782 50.0273 45.8469C49.1638 45.8237 48.7457 45.3093 48.5708 44.1745C44.7725 44.7925 40.1124 48.5177 38.899 53.5855ZM50.1148 41.1122C50.1148 42.2269 50.1148 43.2878 50.1148 44.3439C51.2591 44.3439 52.3369 44.3439 53.3898 44.3439C53.3898 43.2396 53.3898 42.194 53.3898 41.1122C52.2679 41.1122 51.2046 41.1122 50.1148 41.1122ZM67.3709 55.1864C66.2274 55.1864 65.1641 55.1864 64.0919 55.1864C64.0919 56.2867 64.0919 57.3492 64.0919 58.4197C65.2106 58.4197 66.2876 58.4197 67.3709 58.4197C67.3709 57.3115 67.3709 56.2682 67.3709 55.1864ZM36.1914 55.1848C36.1914 56.2963 36.1914 57.3701 36.1914 58.4213C37.3293 58.4213 38.3894 58.4213 39.4359 58.4213C39.4359 57.3018 39.4359 56.2458 39.4359 55.1848C38.3012 55.1848 37.2395 55.1848 36.1914 55.1848ZM36.6456 42.7196C36.6432 41.9107 35.9908 41.2574 35.1867 41.2574C34.3826 41.2582 33.7357 41.9139 33.7397 42.7252C33.7438 43.5422 34.3858 44.1737 35.2051 44.1665C36.0702 44.1593 36.6488 43.5783 36.6456 42.7196ZM68.3171 41.2574C67.5194 41.2478 66.8453 41.9043 66.8341 42.7003C66.8236 43.4908 67.4873 44.1617 68.2866 44.1673C69.1621 44.1737 69.7271 43.6192 69.7375 42.7437C69.7472 41.9139 69.13 41.2679 68.3171 41.2574Z" fill="black"/>
<path d="M63.9346 28.5169C63.9443 27.3412 64.9137 26.3935 66.0781 26.4207C67.2225 26.4472 68.1534 27.3958 68.1558 28.5385C68.1582 29.7038 67.1936 30.6652 66.0284 30.6595C64.8527 30.6523 63.925 29.703 63.9346 28.5169ZM66.7265 28.7175C66.7298 28.6284 66.7338 28.5393 66.737 28.4503C66.5075 28.2793 66.2796 27.9776 66.0492 27.9768C65.8462 27.976 65.5308 28.2777 65.4634 28.504C65.3567 28.8627 65.6279 29.1677 65.9939 29.1356C66.2491 29.1139 66.4834 28.8652 66.7265 28.7175Z" fill="black"/>
<path d="M63.0302 28.5659C63.0198 29.7375 62.0544 30.6788 60.8835 30.658C59.744 30.6379 58.805 29.6853 58.8018 28.5458C58.7986 27.387 59.7737 26.4127 60.9317 26.42C62.0993 26.4264 63.0406 27.3894 63.0302 28.5659ZM61.6178 28.6999C61.6194 28.61 61.6218 28.5201 61.6234 28.4294C61.3883 28.2657 61.1499 27.9696 60.9204 27.976C60.7134 27.9824 60.4004 28.2898 60.3418 28.5185C60.2511 28.8708 60.5192 29.183 60.8915 29.1388C61.1467 29.1083 61.3762 28.8539 61.6178 28.6999Z" fill="black"/>
<path d="M73.2661 28.5168C73.2797 29.6805 72.3232 30.6523 71.1587 30.6579C69.9991 30.6635 69.0249 29.6933 69.0265 28.5361C69.0289 27.4022 69.971 26.4448 71.1098 26.4199C72.2646 26.395 73.2525 27.3556 73.2661 28.5168ZM71.8377 28.7319C71.8457 28.6452 71.8537 28.5594 71.8617 28.4727C71.6346 28.2945 71.4123 27.9856 71.1788 27.9776C70.971 27.9703 70.6355 28.2592 70.5649 28.4831C70.4541 28.8322 70.7158 29.1556 71.0833 29.134C71.3417 29.1195 71.5873 28.8748 71.8377 28.7319Z" fill="black"/>
</svg>
