<svg width="99" height="99" viewBox="0 0 99 99" fill="none" xmlns="http://www.w3.org/2000/svg">
<circle cx="49.5" cy="49.5" r="49.5" fill="black"/>
<path d="M18.2754 49.5827C18.7069 48.3293 19.4884 47.4841 20.8825 47.3768C21.1453 47.3566 21.4478 47.3294 21.6709 47.4351C22.2105 47.6894 22.5169 47.4445 22.8769 47.0806C25.505 44.4307 28.1517 41.7995 30.7915 39.1621C30.9245 39.0291 31.052 38.8899 31.1772 38.7585C30.0793 36.9235 30.0007 34.5707 31.8824 32.7248C33.1568 31.4745 35.4 30.8136 37.7171 32.1922C37.8306 32.0927 37.9612 31.9908 38.0778 31.8742C40.8101 29.1403 43.5447 26.4088 46.263 23.661C46.4131 23.5094 46.5414 23.1976 46.4916 23.011C46.0414 21.3369 46.7435 19.9506 48.3709 19.383C48.4417 19.3581 48.5062 19.3169 48.5739 19.2834C48.9549 19.2834 49.3359 19.2834 49.7169 19.2834C50.9003 19.6862 51.747 20.4016 51.9119 21.7148C52.1622 23.7069 50.3715 25.2892 48.4339 24.762C48.0156 24.6485 47.787 24.734 47.5016 25.0248C46.0997 26.4524 44.6753 27.8566 43.2555 29.2663C43.1225 29.3985 42.9725 29.5128 42.8589 29.6706C52.3823 26.0504 61.3007 27.1078 69.821 33.0312C70.2113 32.595 70.6327 32.0872 71.093 31.6176C71.6529 31.0461 72.1069 31.0461 72.6644 31.5989C73.9233 32.8461 75.1767 34.0987 76.4231 35.3583C76.958 35.8995 76.9549 36.3505 76.4184 36.8909C75.1705 38.1489 73.9171 39.4016 72.6582 40.6487C72.1233 41.179 71.6583 41.1814 71.1241 40.6557C69.8606 39.4132 68.6026 38.1653 67.3499 36.9127C66.8002 36.3629 66.8096 35.8902 67.3593 35.3358C67.6804 35.0123 68.007 34.6951 68.3328 34.3732C60.5986 28.3193 48.3313 27.5083 39.2931 33.8795C40.199 36.0752 39.9844 38.1077 38.1043 39.7102C36.5445 41.0406 34.7554 41.1106 32.9134 40.2887C27.4177 47.5595 26.3214 60.036 33.39 69.4411C33.7151 69.0694 34.0082 68.6947 34.3417 68.3595C34.8713 67.8277 35.3588 67.8223 35.8797 68.3417C37.1479 69.6059 38.4091 70.878 39.6625 72.1578C40.1686 72.6749 40.1655 73.1352 39.6562 73.6499C38.3966 74.9228 37.1292 76.1886 35.8556 77.4475C35.337 77.9606 34.8806 77.9669 34.3659 77.4576C33.0782 76.1855 31.7976 74.9057 30.5271 73.6165C30.0443 73.1267 30.0505 72.6609 30.5396 72.1695C31.0224 71.6851 31.5379 71.2333 32.0006 70.8026C26.1146 62.3375 25.0439 53.4199 28.7209 43.8748C28.6222 43.9517 28.5366 44.0069 28.4659 44.0769C26.9528 45.5815 25.4428 47.0899 23.9274 48.5921C23.7283 48.7896 23.6171 48.9451 23.7166 49.2756C24.1863 50.8345 23.4359 52.3126 21.9656 52.8157C20.5023 53.3164 19.0234 52.591 18.4076 51.074C18.3742 50.9916 18.3182 50.9185 18.2731 50.8415C18.2754 50.4209 18.2754 50.0018 18.2754 49.5827ZM37.9682 36.1577C37.9799 34.5598 36.7164 33.2652 35.1348 33.2543C33.5735 33.2434 32.2525 34.5575 32.2486 36.125C32.2447 37.6824 33.5074 38.9591 35.0726 38.9825C36.6767 39.0058 37.9565 37.7578 37.9682 36.1577ZM35.0999 75.4476C35.9754 74.5682 36.8555 73.6849 37.6797 72.8576C36.8423 72.0187 35.9614 71.1369 35.11 70.2832C34.2601 71.1369 33.3792 72.021 32.5285 72.874C33.3807 73.7277 34.2624 74.6094 35.0999 75.4476ZM71.8939 38.6831C72.7414 37.8294 73.6169 36.9476 74.4606 36.0993C73.6247 35.265 72.7445 34.3864 71.897 33.5405C71.0557 34.3818 70.1755 35.2612 69.3342 36.1025C70.1748 36.95 71.0495 37.8325 71.8939 38.6831ZM49.1765 21.1146C48.64 21.0998 48.1952 21.5329 48.1898 22.0756C48.1843 22.5981 48.5832 23.0265 49.0995 23.0545C49.636 23.0833 50.0963 22.6634 50.1188 22.1246C50.1406 21.5889 49.7114 21.1293 49.1765 21.1146ZM22.0465 50.1674C22.0543 49.6433 21.6523 49.2235 21.122 49.204C20.58 49.1838 20.2037 49.5275 20.1882 50.0578C20.1711 50.6114 20.5894 51.0554 21.1336 51.0624C21.6476 51.0686 22.0387 50.6852 22.0465 50.1674Z" fill="white"/>
<path d="M77.0001 62.6051C76.7077 63.0157 76.5413 63.3337 76.3003 63.5763C73.7484 66.1453 71.1848 68.7018 68.6252 71.2623C66.658 73.2295 64.6908 75.1974 62.7228 77.1638C61.7214 78.1645 61.2502 78.0829 60.6079 76.7999C59.7736 75.1321 58.9557 73.4557 58.091 71.8042C57.9425 71.5196 57.6369 71.2397 57.3391 71.1223C54.3301 69.9397 51.3093 68.785 48.2854 67.6405C47.787 67.4515 47.4753 67.1631 47.2731 66.6546C44.2142 58.9662 41.1414 51.2833 38.0577 43.6043C37.812 42.9924 37.8788 42.5344 38.3671 42.0718C39.3204 41.1675 40.2418 40.2275 41.1601 39.2866C41.5426 38.8948 41.9462 38.8131 42.4508 39.0153C50.2215 42.1255 57.9946 45.2317 65.77 48.3295C66.2218 48.5091 66.4543 48.8263 66.6191 49.2578C67.7636 52.2623 68.9292 55.2581 70.0621 58.2672C70.23 58.7127 70.4819 58.9802 70.9041 59.1855C72.6497 60.0338 74.3867 60.9008 76.1082 61.7965C76.4255 61.9605 76.6587 62.2887 77.0001 62.6051ZM41.7323 41.3534C45.6636 45.2854 49.5684 49.1902 53.4802 53.1028C56.6673 51.6122 59.339 52.1114 60.9967 54.5249C62.4616 56.6577 62.1856 59.5712 60.3467 61.3867C58.4627 63.2474 55.529 63.455 53.3861 61.9154C51.6024 60.6341 50.1671 57.6685 52.0783 54.5202C48.154 50.5975 44.2399 46.685 40.3102 42.7568C39.9728 42.9403 39.8437 43.1782 40.0318 43.6455C42.9593 50.9125 45.8634 58.1895 48.7924 65.4556C48.8958 65.713 49.1649 65.9851 49.4214 66.0862C52.2159 67.1895 55.0267 68.2509 57.8228 69.3511C58.2162 69.5058 58.4308 69.4094 58.703 69.1357C61.8326 65.9882 64.9692 62.8477 68.1198 59.7212C68.4214 59.4219 68.4852 59.1886 68.3281 58.7889C67.2582 56.0629 66.2031 53.3314 65.1737 50.5898C65.0049 50.1396 64.7623 49.8861 64.316 49.708C57.1067 46.8405 49.9012 43.962 42.7035 41.0649C42.2393 40.8783 41.9578 40.9242 41.7323 41.3534ZM69.8459 60.704C66.4403 64.1066 63.0766 67.4671 59.6842 70.8572C60.4167 72.3174 61.1678 73.8157 61.8644 75.2044C65.9932 71.0772 70.0885 66.9827 74.1807 62.8913C74.2025 62.9068 74.1605 62.8679 74.1115 62.8431C72.6847 62.1262 71.2579 61.4116 69.8459 60.704ZM53.0082 57.5387C52.9966 59.509 54.5804 61.1154 56.5398 61.1208C58.4891 61.1262 60.1103 59.5082 60.108 57.5589C60.1056 55.6205 58.5265 54.0335 56.5888 54.0218C54.596 54.011 53.0199 55.559 53.0082 57.5387Z" fill="white"/>
</svg>
