<svg width="99" height="99" viewBox="0 0 99 99" fill="none" xmlns="http://www.w3.org/2000/svg">
<circle cx="49.5" cy="49.5" r="49.5" fill="black"/>
<path d="M77.1716 69.054C77.134 69.172 77.0912 69.2878 77.0589 69.4073C76.5764 71.2178 75.104 72.4097 73.2304 72.4744C72.4413 72.5022 71.6499 72.4887 70.86 72.4789C70.246 72.4714 69.9401 72.191 69.9386 71.6687C69.9371 71.1343 70.2249 70.875 70.8547 70.8683C71.5552 70.86 72.2556 70.8698 72.9561 70.8653C74.5599 70.8555 75.5475 69.8725 75.555 68.2829C75.5565 67.9808 75.555 67.6787 75.555 67.3442C68.3212 67.3442 61.1318 67.3442 53.9258 67.3442C53.7763 68.6121 53.1637 69.5087 51.9034 69.8484C51.581 69.9356 51.2285 69.9281 50.8895 69.9318C50.0095 69.9424 49.1294 69.9371 48.25 69.9348C46.4673 69.9311 45.5392 69.1382 45.2438 67.3412C38.0581 67.3412 30.8672 67.3412 23.6567 67.3412C23.6567 67.8763 23.5891 68.4024 23.6703 68.9037C23.8506 70.0183 24.7736 70.7841 25.9272 70.8593C26.1241 70.872 26.3218 70.8653 26.5194 70.8653C39.5567 70.8653 52.5941 70.8653 65.6314 70.866C65.829 70.866 66.0267 70.8615 66.2236 70.8743C66.6708 70.9029 66.9105 71.1561 66.9429 71.5935C66.9767 72.0505 66.7723 72.3586 66.3138 72.4556C66.1409 72.4924 65.9568 72.4811 65.7772 72.4811C52.6324 72.4819 39.4869 72.4826 26.3421 72.4811C23.6755 72.4811 22.0033 70.8082 22.001 68.1469C22.0003 67.6802 21.9988 67.2127 22.0018 66.746C22.0063 65.9508 22.2626 65.6998 23.075 65.6938C23.3937 65.6915 23.7124 65.693 24.1017 65.693C24.1017 65.3849 24.1017 65.1391 24.1017 64.8934C24.1017 63.6007 24.0949 62.3073 24.1062 61.0146C24.1114 60.3855 24.3827 60.0947 24.9111 60.0954C25.4387 60.0954 25.71 60.3855 25.7153 61.0161C25.7265 62.3629 25.719 63.7097 25.7198 65.0565C25.7198 65.2481 25.7198 65.4398 25.7198 65.6592C26.2849 65.6592 26.7772 65.6592 27.3349 65.6592C27.3349 65.3969 27.3349 65.1677 27.3349 64.9392C27.3349 57.5409 27.3349 50.1418 27.3349 42.7434C27.3349 41.5281 27.4957 41.3643 28.6884 41.3643C30.2149 41.3643 31.7413 41.3643 33.2677 41.3643C33.4616 41.3643 33.6547 41.3643 33.875 41.3643C33.875 40.7074 33.875 40.1069 33.875 39.4403C33.6675 39.4403 33.4939 39.4403 33.3195 39.4403C31.7751 39.4403 30.2306 39.4373 28.6862 39.441C26.8666 39.4455 25.7273 40.5706 25.7235 42.4007C25.7145 46.9439 25.7205 51.487 25.719 56.031C25.719 56.2459 25.7228 56.4639 25.6927 56.6758C25.6288 57.1237 25.335 57.3214 24.9028 57.3176C24.4684 57.3146 24.1888 57.105 24.125 56.6585C24.1047 56.5172 24.1032 56.3722 24.1032 56.2286C24.1024 51.6313 24.0956 47.0341 24.1054 42.4368C24.1107 40.1933 25.3485 38.5061 27.3642 37.9875C27.7933 37.877 28.2495 37.8357 28.6944 37.8304C30.2209 37.8117 31.7473 37.8229 33.2737 37.8229C33.4661 37.8229 33.6593 37.8229 33.9088 37.8229C33.9088 36.9188 33.896 36.0793 33.911 35.2406C33.9621 32.3162 35.7088 30.0819 38.4482 29.4633C38.9337 29.3536 39.4448 29.3175 39.9438 29.3168C46.2832 29.307 52.6226 29.2829 58.9605 29.3423C59.8376 29.3506 60.2803 29.0703 60.7523 28.3999C62.8709 25.3921 65.0249 22.4077 67.2112 19.448C68.824 17.2647 72.1391 17.6157 73.2417 20.0605C73.7843 21.2638 73.6738 22.4437 72.935 23.541C72.4841 24.2107 72.0054 24.8623 71.5169 25.5056C71.3342 25.7461 71.335 25.9047 71.5154 26.158C72.5089 27.5506 72.5119 29.1702 71.5184 30.5741C70.4293 32.1126 69.3178 33.6345 68.21 35.1594C67.8207 35.6945 67.4171 35.7847 66.9827 35.4593C66.549 35.1346 66.5227 34.746 66.9166 34.1966C68.0056 32.68 69.1051 31.1724 70.1888 29.6527C70.7518 28.8636 70.7788 28.0496 70.279 27.2793C70.1723 27.4086 70.0663 27.5228 69.9754 27.6491C68.3874 29.8451 66.794 32.0382 65.2233 34.247C65.0602 34.4755 64.964 34.7971 64.9527 35.0797C64.9189 35.9718 64.9399 36.8662 64.9399 37.8244C65.2789 37.8244 65.5607 37.8244 65.8426 37.8244C67.369 37.8244 68.8954 37.8229 70.4218 37.8252C73.2056 37.8289 75.0545 39.65 75.0642 42.4375C75.0785 46.3885 75.068 50.3387 75.068 54.2896C75.068 57.8633 75.068 61.437 75.068 65.0106C75.068 65.2196 75.068 65.4277 75.068 65.6239C75.8188 65.8471 76.7071 65.3511 77.1686 66.2522C77.1716 67.1864 77.1716 68.1198 77.1716 69.054ZM40.4917 56.4797C40.7299 56.258 40.8615 56.143 40.984 56.0205C42.3308 54.6752 43.667 53.3194 45.0243 51.9853C46.544 50.4912 45.8548 50.7761 48.002 50.7595C50.2469 50.7422 52.4911 50.7588 54.736 50.7535C55.2072 50.7528 55.6056 50.8527 55.7243 51.3781C55.8596 51.9763 55.4973 52.3679 54.7991 52.3694C52.3393 52.3746 49.8787 52.3776 47.4188 52.3656C47.0716 52.3641 46.8206 52.4573 46.5703 52.7098C44.5486 54.7518 42.5089 56.7758 40.4827 58.8125C40.1595 59.1372 39.8296 59.3995 39.3501 59.1935C38.8848 58.9944 38.8728 58.572 38.8736 58.1451C38.8781 56.403 38.8638 54.6609 38.8833 52.9195C38.8879 52.5017 38.8044 52.325 38.3407 52.2033C36.0673 51.6028 34.5401 50.159 34.0839 47.8367C33.8486 46.638 33.9516 45.3724 33.9088 44.1368C33.896 43.767 33.9065 43.3973 33.9065 43.014C32.2208 43.014 30.6132 43.014 28.9921 43.014C28.9921 50.5769 28.9921 58.1075 28.9921 65.6585C42.7426 65.6585 56.4518 65.6585 70.1806 65.6585C70.1806 58.0918 70.1806 50.5604 70.1806 42.9824C68.5294 42.9824 66.9166 42.9816 65.3037 42.9839C65.2 42.9839 65.097 43.0079 64.9407 43.0275C64.9407 43.2567 64.9422 43.4686 64.9407 43.6798C64.9287 44.829 64.9632 45.9804 64.8949 47.1257C64.725 49.9629 62.2073 52.322 59.3619 52.3619C58.7223 52.3709 58.4239 52.1364 58.4044 51.6096C58.3848 51.0827 58.6764 50.7964 59.2814 50.749C61.7563 50.5559 63.3068 48.8987 63.3196 46.393C63.3346 43.4476 63.3241 40.503 63.3218 37.5576C63.3218 37.396 63.2993 37.2345 63.2782 36.9436C63.0798 37.2089 62.9716 37.3494 62.8679 37.493C61.7 39.1073 60.5433 40.73 59.3559 42.3293C59.1657 42.5856 58.8681 42.817 58.5712 42.9305C57.2312 43.4401 55.8754 43.9076 54.5218 44.381C53.6823 44.6749 53.2186 44.3487 53.2344 43.4709C53.2592 42.0347 53.2802 40.5977 53.3471 39.163C53.3629 38.8293 53.4884 38.455 53.6808 38.1829C55.2794 35.9282 56.9065 33.6931 58.5231 31.4512C58.6298 31.3039 58.7215 31.1461 58.8613 30.9296C58.5539 30.9296 58.3563 30.9296 58.1594 30.9296C52.1258 30.9296 46.0916 30.9289 40.058 30.9296C37.2442 30.9296 35.5284 32.6409 35.5254 35.457C35.5216 38.5099 35.5216 41.5627 35.5261 44.6155C35.5276 45.4415 35.5051 46.2705 35.572 47.0919C35.729 49.0182 37.4186 50.6258 39.3508 50.7415C40.2985 50.7986 40.4894 51.003 40.4902 51.9771C40.4932 53.4291 40.4917 54.8811 40.4917 56.4797ZM58.3683 40.9592C61.9532 35.9966 65.4984 31.0889 69.063 26.1542C68.0071 25.3914 67.009 24.6699 65.9643 23.9153C62.3869 28.8666 58.8343 33.784 55.2689 38.7195C56.3226 39.4809 57.3236 40.2039 58.3683 40.9592ZM64.9685 41.365C65.2165 41.365 65.4104 41.365 65.6051 41.365C67.3464 41.365 69.0878 41.3613 70.8284 41.3665C71.5326 41.3688 71.8107 41.6424 71.8363 42.333C71.843 42.5127 71.8385 42.6923 71.8385 42.8712C71.8385 50.2312 71.8385 57.5905 71.8385 64.9505C71.8385 65.1775 71.8385 65.4052 71.8385 65.6592C72.4052 65.6592 72.8975 65.6592 73.4153 65.6592C73.4296 65.4879 73.4514 65.3481 73.4521 65.2075C73.4536 57.5784 73.4604 49.9494 73.4476 42.3203C73.4446 40.5654 72.2782 39.447 70.5165 39.4418C68.8473 39.4365 67.1773 39.4403 65.5081 39.4403C65.3368 39.4403 65.1654 39.4403 64.9685 39.4403C64.9685 40.1129 64.9685 40.7014 64.9685 41.365ZM66.9113 22.6038C67.9732 23.3697 68.9803 24.0964 70.016 24.8435C70.5984 24.028 71.1696 23.2915 71.6709 22.5099C72.2248 21.6463 71.9505 20.5182 71.1103 19.9493C70.285 19.3902 69.1825 19.5435 68.5565 20.3469C67.9958 21.0654 67.4802 21.8184 66.9113 22.6038ZM46.9145 67.3405C47.0506 68.0184 47.3249 68.301 47.9073 68.31C49.0347 68.3273 50.162 68.3288 51.2894 68.3077C51.865 68.2972 52.1529 67.983 52.2461 67.3405C50.4777 67.3405 48.7138 67.3405 46.9145 67.3405ZM54.9044 42.5307C55.5409 42.3015 56.1407 42.085 56.8246 41.8385C56.1512 41.3538 55.5702 40.9351 54.9044 40.4564C54.9044 41.2072 54.9044 41.8265 54.9044 42.5307Z" fill="white"/>
<path d="M45.4279 38.7947C44.0112 38.7947 42.5953 38.7977 41.1786 38.7932C40.524 38.7909 40.1828 38.5181 40.173 38.01C40.1625 37.4892 40.5323 37.1811 41.1989 37.1803C44.0315 37.1766 46.8649 37.1766 49.6975 37.1803C50.3303 37.1811 50.6956 37.4809 50.7046 37.9762C50.7144 38.5046 50.3619 38.7917 49.6772 38.7932C48.2606 38.7977 46.8446 38.7947 45.4279 38.7947Z" fill="white"/>
<path d="M45.4415 44.4997C44.0067 44.4997 42.5727 44.5027 41.138 44.4982C40.5262 44.4967 40.191 44.2224 40.173 43.7316C40.155 43.2236 40.5142 42.8884 41.1305 42.8876C43.9992 42.8809 46.8679 42.8809 49.7366 42.8876C50.3567 42.8891 50.7159 43.2191 50.7016 43.7256C50.6881 44.2202 50.3552 44.4975 49.7434 44.499C48.3102 44.5027 46.8754 44.499 45.4415 44.4997Z" fill="white"/>
</svg>
