<svg width="12" height="25" viewBox="0 0 12 25" fill="none" xmlns="http://www.w3.org/2000/svg">
<path fill-rule="evenodd" clip-rule="evenodd" d="M9.56845 4.21945C10.28 4.19389 10.9915 4.21397 11.7063 4.21215C11.7936 4.21215 11.8809 4.21215 12 4.21215V0.183451C11.6191 0.141467 11.2214 0.0830538 10.8237 0.0611488C10.0937 0.0264659 9.36205 -0.0136943 8.6304 0.00455992C7.51447 0.0301158 6.45896 0.325834 5.53601 1.04505C4.47882 1.87379 3.89652 3.03475 3.67669 4.40929C3.58439 4.97517 3.5609 5.56296 3.54747 6.13796C3.52733 7.04154 3.54244 7.94513 3.54412 8.85053V9.18823H0V13.6879H3.52399V25H7.82995V13.7061H11.3422C11.5217 12.2093 11.6979 10.7289 11.8825 9.18459C11.6006 9.18459 11.3472 9.18459 11.0938 9.18459C10.0954 9.18824 7.80311 9.18459 7.80311 9.18459C7.80311 9.18459 7.81318 6.95392 7.83667 5.98645C7.86855 4.66303 8.5918 4.25778 9.56845 4.21945Z" fill="white"/>
</svg>
