<svg width="157" height="58" viewBox="0 0 157 58" fill="none" xmlns="http://www.w3.org/2000/svg">
<path d="M57.752 2.6958H64.5519V49.6767H86.9445V55.4247H57.752V2.6958Z" fill="white"/>
<path d="M119.158 2.69434C112.602 13.4105 97.6635 35.6014 93.0352 46.5141L92.8629 46.4312C93.6528 37.9212 93.6131 27.8805 93.5979 18.4462H87.2281V55.4232H94.0981C100.877 44.1897 115.318 22.5669 120.489 11.0401L120.721 11.123C119.974 22.1293 120.286 43.2409 120.224 55.4232H126.594V2.69434H119.158Z" fill="white"/>
<path d="M86.9445 17.694V55.4249H93.7443V17.694H86.9445ZM86.9445 4.25581C87.0817 5.59456 86.2796 8.8954 88.4938 8.8739C89.877 8.66818 93.7672 9.6922 93.7458 7.31407C93.6086 5.97531 94.4107 2.67448 92.1965 2.69597C90.8133 2.9017 86.9231 1.87767 86.9445 4.25581Z" fill="#FC227B"/>
<path d="M157 55.4232H150.241V35.3418L145.217 29.5615L128.007 55.4232H119.986L140.427 25.1062L121.49 2.6958H129.865C133.192 6.93315 147.272 23.8918 149.999 28.1122H150.241V2.6958H157V55.4232Z" fill="white"/>
<path d="M48.5047 28.9692C47.1169 29.4314 30.1608 35.0812 29.409 35.3329L31.2313 40.5759C31.9465 40.3364 48.8493 34.659 50.176 34.2122L48.5047 28.9692Z" fill="white"/>
<path d="M31.733 34.5574L30.94 32.2744L26.2675 33.756L28.9088 41.3555L33.5538 39.7957L31.733 34.5574Z" fill="white"/>
<path d="M19.8977 0.508301L15.2526 2.06814L25.4226 31.3243L30.0952 29.8443L19.8977 0.508301Z" fill="white"/>
<path d="M24.9545 31.4824L25.7993 33.9128L8.69828 39.3338L6.96286 39.8834L6.19733 37.4285L7.93122 36.8789L24.9545 31.4824Z" fill="#FC227B"/>
<path d="M8.6404 38.0038C9.55843 40.9915 5.46694 42.2872 4.51994 39.3103C3.6019 36.3227 7.6934 35.0254 8.6404 38.0038Z" fill="#FC227B"/>
<path d="M49.2626 26.408C49.0979 26.4602 32.0335 31.869 31.2527 32.1177L30.4078 29.6874C31.1764 29.4433 48.3613 23.9946 48.494 23.9531L49.2626 26.408Z" fill="#FC227B"/>
<path d="M50.937 24.5273C51.855 27.5149 47.7635 28.8107 46.8165 25.8338C45.8985 22.8461 49.99 21.5488 50.937 24.5273Z" fill="#FC227B"/>
<path d="M17.2213 7.63022C29.0993 2.20918 39.9678 12.3558 43.9922 23.5111L51.3425 21.1805C39.9495 -15.95 -10.6932 -0.13979 2.03721 36.8127L9.38756 34.4821C5.41654 23.7506 6.89881 12.3082 17.2213 7.63022ZM36.2163 50.3476C26.9445 54.5466 17.7291 49.408 12.2835 40.5035L4.72268 42.9C17.6864 70.4474 58.5175 57.3024 53.023 27.5872L45.6895 29.9116C47.0589 38.7057 44.2133 46.7229 36.2163 50.3476Z" fill="white"/>
</svg>
