<svg width="20" height="20" viewBox="0 0 20 20" fill="none" xmlns="http://www.w3.org/2000/svg">
<path d="M0.331199 6.63855H4.48086V20H0.331199V6.63855ZM2.40603 0C3.73258 0 4.80855 1.07861 4.80855 2.40667C4.80855 3.73649 3.73258 4.81685 2.40603 4.81685C1.07596 4.81685 0 3.73649 0 2.40667C0.00175239 1.07861 1.07596 0 2.40603 0Z" fill="white"/>
<path d="M7.07962 6.63866H11.054V8.46563H11.1084C11.6621 7.41337 13.0132 6.30664 15.032 6.30664C19.2272 6.30664 20 9.07169 20 12.6712V20.0001H15.8591V13.5038C15.8591 11.9527 15.8293 9.96057 13.7054 9.96057C11.5482 9.96057 11.2205 11.6488 11.2205 13.3914V20.0001H7.07962V6.63866Z" fill="white"/>
</svg>
