<svg width="86" height="86" viewBox="0 0 86 86" fill="none" xmlns="http://www.w3.org/2000/svg">
<circle cx="43" cy="43" r="43" fill="black"/>
<path d="M43.0567 18.0006C42.98 18.0542 42.9022 18.1061 42.8267 18.1616C42.4529 18.4351 42.2884 18.7966 42.4341 19.247C42.5767 19.6892 42.9034 19.9327 43.371 19.9227C43.8161 19.9133 44.1262 19.6692 44.2601 19.2464C44.4028 18.796 44.2406 18.4345 43.8662 18.161C43.7908 18.1055 43.7129 18.0537 43.6363 18C43.4429 18.0006 43.2495 18.0006 43.0567 18.0006Z" fill="#FC227B"/>
<path d="M32.8688 60.2804C33.4372 61.8776 33.9955 63.4489 34.5545 65.0203C34.7432 65.5497 34.9436 66.0757 35.117 66.6104C35.2632 67.0627 35.5179 67.3893 36.012 67.4371C36.512 67.4854 36.8092 67.1894 37.0397 66.782C39.0391 63.2585 41.0426 59.7374 43.0461 56.2162C43.131 56.067 43.2235 55.9226 43.3438 55.7245C43.4617 55.9149 43.5561 56.0564 43.6404 56.2038C45.5725 59.5988 47.5041 62.9944 49.4357 66.3899C49.5229 66.5438 49.6155 66.6948 49.6998 66.8498C49.9091 67.2354 50.2163 67.473 50.6691 67.4371C51.1414 67.3993 51.405 67.1022 51.5577 66.6688C52.2575 64.6842 52.9757 62.706 53.6602 60.7161C53.787 60.3476 53.9238 60.2662 54.31 60.3511C56.2875 60.7839 58.2751 61.1731 60.255 61.5952C60.7267 61.6954 61.1206 61.6377 61.4142 61.2367C61.6996 60.847 61.6188 60.459 61.3942 60.064C59.5575 56.8365 57.7321 53.6025 55.886 50.3802C55.6997 50.0554 55.7215 49.8802 55.9957 49.6167C64.9141 41.0432 63.1046 26.4792 52.3672 20.3643C51.0347 19.6055 49.6226 19.033 48.1391 18.6391C47.4168 18.4475 46.8797 18.678 46.7347 19.2506C46.5855 19.8396 46.9086 20.29 47.6279 20.5011C53.3666 22.1856 57.2421 25.8583 59.0345 31.5528C61.9826 40.9176 55.9308 50.7611 46.2583 52.4981C37.4672 54.0765 29.0799 48.3962 27.2527 39.6263C25.5057 31.2391 30.689 22.7764 38.9542 20.5212C39.0314 20.4999 39.1116 20.4876 39.1882 20.4634C39.815 20.2688 40.1151 19.7794 39.9524 19.2211C39.8008 18.701 39.2767 18.4186 38.6664 18.6114C37.7177 18.9103 36.759 19.2022 35.8534 19.6067C28.9343 22.6962 24.629 29.6802 25.0252 37.2425C25.2764 42.0378 27.1389 46.1451 30.5876 49.5017C30.9638 49.8679 30.9738 50.1008 30.7226 50.5359C28.9325 53.642 27.1731 56.7651 25.4037 59.8836C25.356 59.9673 25.3141 60.0546 25.2646 60.1371C25.0352 60.5209 25.024 60.9048 25.2999 61.2639C25.5741 61.6206 25.9438 61.7013 26.3789 61.6094C28.3913 61.1854 30.406 60.7703 32.4201 60.3535C32.5575 60.3252 32.6984 60.3081 32.8688 60.2804ZM54.136 51.1921C55.6696 53.8955 57.1743 56.5476 58.712 59.258C58.5092 59.2374 58.3694 59.2362 58.235 59.2079C56.6932 58.8901 55.1525 58.567 53.6113 58.2474C52.8342 58.0864 52.4881 58.2816 52.2169 59.041C51.7357 60.3865 51.2599 61.7344 50.78 63.0804C50.6632 63.4077 50.5406 63.7326 50.3849 64.1541C48.5524 60.9319 46.7718 57.8005 44.9694 54.6307C48.3573 54.2858 51.379 53.1608 54.136 51.1921ZM27.9573 59.2975C29.5192 56.5452 31.0298 53.8831 32.5557 51.1939C35.3062 53.1602 38.3368 54.2935 41.7241 54.6313C39.9129 57.8146 38.1346 60.9402 36.3109 64.1453C36.2384 63.9655 36.2072 63.8947 36.1812 63.8222C35.6052 62.2037 35.0332 60.5834 34.4525 58.9667C34.2143 58.304 33.824 58.0917 33.1459 58.2315C32.5009 58.3641 31.8564 58.4992 31.2114 58.6318C30.1607 58.8476 29.11 59.0617 27.9573 59.2975Z" fill="#FC227B"/>
<path d="M43.3433 50.8354C51.3272 50.8372 57.8371 44.3249 57.8318 36.341C57.8264 28.3547 51.3107 21.8525 43.3256 21.8649C35.3564 21.8773 28.8713 28.3648 28.8612 36.3345C28.8506 44.3179 35.3576 50.833 43.3433 50.8354ZM55.9008 36.331C55.9102 43.2524 50.2724 48.9009 43.3521 48.9044C36.4495 48.908 30.814 43.2937 30.7916 36.3911C30.7686 29.4679 36.3941 23.8106 43.3161 23.7953C50.2399 23.7799 55.8919 29.4095 55.9008 36.331Z" fill="#FC227B"/>
<path d="M49.4186 43.572C49.1845 42.1587 48.9881 40.7236 48.6957 39.308C48.5518 38.6105 48.6468 38.1311 49.2075 37.6352C50.2305 36.7308 51.1632 35.7243 52.1443 34.7715C52.4839 34.4419 52.6803 34.0805 52.5105 33.6106C52.3483 33.1625 51.9822 33.0162 51.5329 32.9537C50.0205 32.7421 48.5129 32.4991 47.0017 32.2816C46.6881 32.2368 46.497 32.1094 46.3532 31.8128C45.6875 30.439 44.9912 29.0806 44.3172 27.7109C44.1121 27.2935 43.852 26.9769 43.3432 26.978C42.8338 26.9798 42.5779 27.3017 42.3727 27.7174C41.6982 29.0865 41.0007 30.4449 40.3362 31.8193C40.1912 32.12 39.9942 32.2379 39.6835 32.2828C38.1558 32.5009 36.6317 32.7391 35.104 32.9585C34.6718 33.0204 34.3286 33.1908 34.1795 33.6188C34.0232 34.0669 34.1919 34.4254 34.5191 34.7456C35.6352 35.8363 36.7366 36.9425 37.8587 38.0273C38.0821 38.2431 38.1364 38.4389 38.0815 38.7455C37.8038 40.2956 37.5591 41.8516 37.2962 43.4046C37.2254 43.8244 37.3304 44.177 37.6723 44.4305C38.0178 44.6864 38.3858 44.6693 38.7613 44.473C40.157 43.7442 41.5608 43.0296 42.9499 42.2879C43.2436 42.131 43.4623 42.1458 43.7489 42.2979C45.1392 43.0373 46.5371 43.7625 47.9428 44.4724C48.6933 44.8515 49.4557 44.3798 49.4186 43.572ZM47.1804 41.9093C46.0631 41.3297 45.0431 40.8233 44.046 40.2749C43.5561 40.0055 43.1245 40.0096 42.6386 40.2761C41.7371 40.7708 40.8161 41.2295 39.9017 41.7012C39.7991 41.7543 39.6882 41.7908 39.5214 41.8598C39.7183 40.6476 39.8822 39.5025 40.0992 38.3681C40.1988 37.8463 40.0526 37.4684 39.6847 37.1164C38.9294 36.3929 38.1894 35.653 37.4459 34.9171C37.364 34.8364 37.2979 34.7397 37.1865 34.6041C38.43 34.413 39.6033 34.2232 40.7802 34.0563C41.223 33.9938 41.5119 33.7727 41.7053 33.3806C42.174 32.429 42.6522 31.4821 43.1292 30.5346C43.1893 30.4155 43.2648 30.304 43.3638 30.1383C43.7583 30.9213 44.118 31.6377 44.4794 32.3535C45.4127 34.2025 45.0242 33.9113 47.1167 34.2355C47.8985 34.357 48.6804 34.4814 49.4209 34.5982C48.5884 35.4672 47.7836 36.3192 46.964 37.1577C46.6344 37.4943 46.5 37.8522 46.589 38.3333C46.8007 39.4837 46.9734 40.6423 47.1804 41.9093Z" fill="#FC227B"/>
</svg>
