<svg width="86" height="86" viewBox="0 0 86 86" fill="none" xmlns="http://www.w3.org/2000/svg">
<circle cx="43" cy="43" r="43" fill="black"/>
<path d="M22.2659 66.3457C21.5361 66.1114 20.8736 65.7817 20.446 65.1026C20.0953 64.5456 19.9995 63.9338 20 63.2864C20.0043 52.5455 20.0032 41.8052 20.0032 31.0643C20.0032 28.3794 20.0022 25.6939 20.0038 23.0089C20.0048 21.1157 21.1192 20.0008 23.0135 20.0008C34.823 19.9997 46.6324 19.9997 58.4413 20.0008C60.3356 20.0008 61.45 21.1152 61.4522 23.0062C61.4538 24.4696 61.4618 25.933 61.4484 27.3959C61.4414 28.1774 60.7622 28.6368 60.1385 28.3023C59.7453 28.0917 59.6392 27.7314 59.6408 27.3108C59.6462 25.8926 59.6435 24.475 59.6424 23.0569C59.6419 22.1057 59.3484 21.8105 58.3988 21.8105C46.6195 21.81 34.8402 21.81 23.0614 21.8105C22.1097 21.8105 21.814 22.1051 21.814 23.0531C21.8135 36.4638 21.8135 49.8746 21.814 63.2853C21.814 64.2376 22.1086 64.5343 23.055 64.5343C34.8343 64.5349 46.6136 64.5349 58.3923 64.5343C59.3457 64.5343 59.6408 64.2402 59.6424 63.2945C59.6435 62.6158 59.6371 61.9366 59.6446 61.258C59.6516 60.6095 60.0281 60.184 60.5672 60.1969C61.0897 60.2093 61.4441 60.623 61.4511 61.251C61.4592 61.9749 61.4554 62.6993 61.4527 63.4232C61.4462 64.9049 60.7627 65.8254 59.3478 66.2654C59.2923 66.2826 59.2428 66.3182 59.1905 66.3451C46.8818 66.3457 34.5741 66.3457 22.2659 66.3457Z" fill="#FC227B"/>
<path d="M66.3395 41.725C66.0987 42.5663 65.6333 43.2207 64.8755 43.6984C64.6569 43.8363 64.4786 44.2225 64.4802 44.4939C64.4883 45.9552 63.2543 47.1886 61.7505 47.1665C61.1548 47.1579 60.5489 47.8753 60.5484 48.5141C60.5462 51.0633 60.5473 53.6125 60.5473 56.1617C60.5473 56.2824 60.5451 56.403 60.5473 56.5237C60.5554 56.9379 60.3997 57.2734 60.0157 57.4436C59.6166 57.6203 59.2476 57.5109 58.9406 57.2088C58.339 56.6158 57.7401 56.0206 57.1449 55.4211C57.0286 55.3037 56.9359 55.1626 56.7921 54.9822C56.2896 55.482 55.8447 55.9242 55.3998 56.3664C55.1219 56.6427 54.8435 56.919 54.5655 57.1959C54.2618 57.4991 53.9052 57.6327 53.497 57.4549C53.0925 57.2788 52.9416 56.9352 52.9427 56.5032C52.947 54.6477 52.9443 52.7928 52.9443 50.9373C52.9443 50.2586 52.9066 49.5767 52.9567 48.9019C52.9955 48.3794 52.8522 47.9415 52.5102 47.5904C52.3179 47.3927 52.0158 47.1778 51.7653 47.1805C50.2201 47.195 48.9877 45.9352 49.0287 44.5192C49.0324 44.3867 48.984 44.2532 48.9522 44.0797C48.7691 44.0797 48.5913 44.0797 48.4131 44.0797C42.8633 44.0797 37.3135 44.0797 31.7637 44.0797C30.9278 44.0797 30.5055 43.783 30.4958 43.19C30.4861 42.5792 30.9159 42.2695 31.7777 42.2695C36.7695 42.2695 41.7613 42.2695 46.7531 42.2695C46.9324 42.2695 47.1123 42.2695 47.3337 42.2695C47.0224 41.3819 47.1479 40.5729 47.6488 39.7348C47.408 39.7348 47.2373 39.7348 47.066 39.7348C41.9686 39.7348 36.8713 39.7348 31.7739 39.7348C30.9148 39.7348 30.4834 39.4219 30.4958 38.8106C30.5077 38.2192 30.9294 37.9251 31.7675 37.9251C36.6989 37.9251 41.6304 37.9251 46.5619 37.9251C46.7412 37.9251 46.9206 37.9251 47.0391 37.9251C47.1953 37.3574 47.2583 36.7881 47.5093 36.319C47.7247 35.9161 48.1238 35.5875 48.4982 35.2999C48.8262 35.0479 49.0023 34.7737 49.0362 34.366C49.1725 32.7152 50.024 31.848 51.6625 31.716C52.095 31.681 52.3847 31.5162 52.6217 31.1543C53.4743 29.8514 54.7815 29.5072 56.1954 30.2112C56.5837 30.4045 56.9236 30.3975 57.3087 30.2047C58.708 29.5051 60.0184 29.8579 60.8785 31.1645C61.1053 31.5092 61.3789 31.6783 61.7974 31.7123C63.4741 31.848 64.2906 32.6963 64.4753 34.3762C64.5066 34.6595 64.6574 35.0349 64.8761 35.1739C65.6484 35.664 66.1299 36.3233 66.3395 37.2001C66.3395 37.4716 66.3395 37.743 66.3395 38.015C66.1827 38.3829 66.0028 38.7432 65.8789 39.1219C65.8186 39.3061 65.8089 39.5414 65.8687 39.7235C65.9931 40.1005 66.179 40.4565 66.3395 40.8212C66.3395 41.1212 66.3395 41.4233 66.3395 41.725ZM54.7708 31.5852C54.5564 31.7731 54.2769 31.932 54.1196 32.1717C53.5648 33.0173 52.8226 33.48 51.7993 33.5118C51.1335 33.5328 50.8702 33.7999 50.8389 34.457C50.7899 35.4857 50.3504 36.264 49.4687 36.808C48.9328 37.1387 48.8348 37.5114 49.1353 38.0743C49.6228 38.9867 49.6228 39.8786 49.1369 40.7915C48.8359 41.3565 48.928 41.7276 49.466 42.0605C50.3321 42.5964 50.7624 43.3607 50.8325 44.3684C50.8847 45.1214 51.1179 45.3094 51.8924 45.3541C52.793 45.4058 53.5083 45.7973 54.0135 46.5503C54.5068 47.2855 54.7616 47.3566 55.542 46.9726C56.3376 46.5816 57.1385 46.5778 57.9356 46.9656C58.7349 47.3539 58.9891 47.2893 59.4701 46.5643C59.9721 45.8081 60.6857 45.4128 61.5841 45.3552C62.4033 45.3029 62.6026 45.1225 62.6629 44.2946C62.7324 43.3397 63.1558 42.6088 63.9707 42.0955C64.5755 41.7147 64.6649 41.3689 64.3288 40.7275C63.8732 39.8587 63.8743 39.0039 64.3315 38.1357C64.6655 37.5012 64.5701 37.1468 63.9674 36.7682C63.1525 36.256 62.7297 35.524 62.6619 34.569C62.6042 33.7541 62.385 33.5425 61.5787 33.5037C60.6491 33.459 59.9467 33.0319 59.4437 32.259C59.0214 31.6099 58.6934 31.5141 58.0121 31.8652C57.1557 32.3064 56.3095 32.2994 55.4575 31.8566C55.2749 31.7607 55.0729 31.7026 54.7708 31.5852ZM58.7139 54.477C58.7139 52.5832 58.7139 50.8301 58.7139 49.1609C58.1462 48.9536 57.6221 48.7414 57.0835 48.576C56.8821 48.5141 56.6311 48.506 56.4307 48.5669C55.8803 48.7338 55.3449 48.9503 54.7869 49.1534C54.7869 50.8446 54.7869 52.5951 54.7869 54.4942C55.2232 54.0326 55.5636 53.6545 55.9228 53.2958C56.5271 52.692 56.971 52.6969 57.5839 53.3082C57.9404 53.6637 58.2846 54.0321 58.7139 54.477Z" fill="#FC227B"/>
<path d="M55.2986 26.1711C45.5649 26.1711 35.8899 26.1711 26.1579 26.1711C26.1579 26.3607 26.1579 26.5357 26.1579 26.7108C26.1579 32.3963 26.1579 38.0818 26.1573 43.7673C26.1573 43.9332 26.1643 44.1013 26.1401 44.2639C26.0695 44.7352 25.6882 45.0702 25.246 45.0664C24.8033 45.0632 24.4306 44.7244 24.3627 44.2505C24.3417 44.1023 24.3482 43.9494 24.3482 43.7991C24.3476 37.7366 24.3476 31.674 24.3476 25.6115C24.3476 24.6301 24.6331 24.3452 25.6155 24.3452C35.6874 24.3452 45.7599 24.3452 55.8318 24.3452C56.8228 24.3452 57.1072 24.6258 57.1083 25.6023C57.1088 26.1754 57.1099 26.7485 57.1083 27.3215C57.1062 28.0632 56.7787 28.4946 56.2148 28.5016C55.6498 28.5092 55.3029 28.0707 55.2991 27.3426C55.297 26.9677 55.2986 26.5923 55.2986 26.1711Z" fill="#FC227B"/>
<path d="M26.1573 60.1732C35.8856 60.1732 45.5601 60.1732 55.2986 60.1732C55.2986 59.8575 55.2921 59.5473 55.2997 59.2371C55.3148 58.6182 55.6821 58.2046 56.2067 58.2062C56.7318 58.2078 57.0959 58.6188 57.1062 59.243C57.1153 59.801 57.1137 60.359 57.1067 60.917C57.0981 61.6581 56.7636 61.9969 56.0203 61.999C54.0603 62.0044 52.1004 62.0012 50.1404 62.0012C42.0139 62.0012 33.8879 62.0012 25.7615 62.0012C24.569 62.0012 24.3471 61.7761 24.3471 60.5647C24.3471 57.4581 24.346 54.3519 24.3476 51.2452C24.3482 50.6264 24.5771 50.2547 25.0133 50.1465C25.6074 49.9984 26.1207 50.3856 26.1503 51.0357C26.1746 51.5625 26.1568 52.0909 26.1568 52.6187C26.1573 55.1205 26.1573 57.6223 26.1573 60.1732Z" fill="#FC227B"/>
<path d="M42.2697 46.6127C43.9265 46.6127 45.5832 46.6073 47.24 46.6149C48.0376 46.6186 48.5186 47.2369 48.2261 47.8763C48.0231 48.3195 47.6315 48.4262 47.1769 48.4251C44.9627 48.4197 42.7491 48.4224 40.5349 48.4224C39.4205 48.4224 38.3056 48.4294 37.1912 48.4192C36.5578 48.4133 36.1759 48.0546 36.1808 47.5079C36.1856 46.9493 36.5766 46.6154 37.2548 46.6132C38.926 46.6095 40.5979 46.6127 42.2697 46.6127Z" fill="#FC227B"/>
<path d="M42.6026 53.8462C42.3139 54.171 42.1216 54.4274 41.8889 54.639C41.4683 55.022 40.9458 55.0101 40.5941 54.6407C40.2629 54.2927 40.2634 53.7767 40.6232 53.3749C40.8742 53.0949 41.1424 52.8261 41.4279 52.5816C42.1324 51.9778 43.083 51.9719 43.7751 52.5983C44.1759 52.9607 44.5136 53.3922 44.9708 53.892C45.2461 53.5742 45.4416 53.3302 45.6565 53.104C45.9576 52.7873 46.2721 52.4825 46.5834 52.1755C47.1086 51.6562 47.6488 51.5911 48.0452 51.9956C48.4529 52.4114 48.3883 52.922 47.8556 53.459C47.3779 53.941 46.8985 54.4214 46.4159 54.8986C45.475 55.8294 44.4748 55.8267 43.5317 54.8798C43.2258 54.5717 42.9495 54.2335 42.6026 53.8462Z" fill="#FC227B"/>
<path d="M35.968 32.4916C35.2904 32.4916 34.6123 32.4986 33.9348 32.4894C33.3041 32.4813 32.9039 32.1291 32.8969 31.5964C32.8899 31.0648 33.2922 30.6883 33.9143 30.684C35.3001 30.6748 36.6854 30.6748 38.0713 30.684C38.6869 30.6883 39.1005 31.075 39.0914 31.5985C39.0828 32.1215 38.6702 32.4813 38.0459 32.4889C37.3538 32.4986 36.6607 32.4916 35.968 32.4916Z" fill="#FC227B"/>
<path d="M30.3962 30.6894C30.8658 30.6797 31.2994 31.0987 31.3091 31.5716C31.3188 32.0413 30.9003 32.4743 30.4274 32.4845C29.9588 32.4948 29.5241 32.0747 29.5139 31.6023C29.5037 31.1337 29.9238 30.6991 30.3962 30.6894Z" fill="#FC227B"/>
<path d="M25.2514 46.6204C25.7195 46.6198 26.1498 47.0491 26.1503 47.5171C26.1509 47.9852 25.7211 48.415 25.253 48.4155C24.7828 48.4161 24.3557 47.989 24.3552 47.5188C24.3541 47.0486 24.7807 46.6209 25.2514 46.6204Z" fill="#FC227B"/>
<path d="M56.8029 39.9438C57.7325 39.0125 58.6487 38.0775 59.588 37.1662C59.7825 36.9777 60.0453 36.8182 60.3049 36.7487C60.6733 36.6502 61.0385 36.8177 61.157 37.1705C61.2507 37.4489 61.1861 37.7931 61.1381 38.0996C61.1182 38.2261 60.9642 38.3376 60.8586 38.4437C59.7749 39.5312 58.6902 40.6181 57.6022 41.7018C56.9946 42.3072 56.5471 42.3077 55.9433 41.7093C55.4515 41.2219 54.9625 40.7312 54.4756 40.2389C53.9526 39.71 53.8933 39.18 54.307 38.7793C54.7093 38.3899 55.2479 38.4631 55.7698 38.9802C56.0693 39.277 56.3666 39.5753 56.6661 39.8721C56.686 39.8926 56.7178 39.9001 56.8029 39.9438Z" fill="#FC227B"/>
</svg>
