<svg width="105" height="39" viewBox="0 0 105 39" fill="none" xmlns="http://www.w3.org/2000/svg">
<path d="M38.5723 1.78333H43.1138V32.8611H58.0698V36.6634H38.5723V1.78333Z" fill="black"/>
<path d="M79.5849 1.78229C75.2063 8.87104 65.2289 23.5502 62.1377 30.769L62.0226 30.7141C62.5502 25.0848 62.5237 18.4429 62.5135 12.2021H58.2592V36.6624H62.8476C67.3749 29.2314 77.0203 14.928 80.4741 7.30298L80.6289 7.35782C80.1298 14.6385 80.3386 28.6038 80.2968 36.6624H84.5512V1.78229H79.5849Z" fill="black"/>
<path d="M58.0697 11.7045V36.6634H62.6113V11.7045H58.0697ZM58.0697 2.81514C58.1614 3.70072 57.6256 5.88422 59.1045 5.87C60.0283 5.73392 62.6266 6.41131 62.6123 4.83817C62.5206 3.95259 63.0564 1.76909 61.5775 1.78331C60.6537 1.9194 58.0555 1.242 58.0697 2.81514Z" fill="#FC227B"/>
<path d="M104.859 36.6624H100.345V23.3786L96.9893 19.555L85.4954 36.6624H80.1379L93.7902 16.6078L81.1422 1.78333H86.7359C88.9583 4.58633 98.3623 15.8044 100.183 18.5963H100.345V1.78333H104.859V36.6624Z" fill="black"/>
<path d="M32.396 19.163C31.4691 19.4687 20.1442 23.206 19.6421 23.3725L20.8592 26.8408C21.3369 26.6823 32.6262 22.9267 33.5123 22.6312L32.396 19.163Z" fill="black"/>
<path d="M21.1943 22.8597L20.6647 21.3495L17.5439 22.3295L19.308 27.3566L22.4104 26.3248L21.1943 22.8597Z" fill="black"/>
<path d="M13.2895 0.336121L10.1871 1.36795L16.9796 20.7209L20.1004 19.7418L13.2895 0.336121Z" fill="black"/>
<path d="M16.6669 20.8254L17.2312 22.4331L5.80953 26.0191L4.65046 26.3827L4.13916 24.7588L5.29722 24.3952L16.6669 20.8254Z" fill="#FC227B"/>
<path d="M5.77086 25.1396C6.38401 27.1159 3.65133 27.9731 3.01883 26.0039C2.40568 24.0276 5.13836 23.1694 5.77086 25.1396Z" fill="#FC227B"/>
<path d="M32.9022 17.4689C32.7922 17.5035 21.3949 21.0814 20.8735 21.2459L20.3092 19.6382C20.8225 19.4767 32.3002 15.8725 32.3888 15.845L32.9022 17.4689Z" fill="#FC227B"/>
<path d="M34.0205 16.2249C34.6336 18.2012 31.901 19.0583 31.2685 17.0891C30.6553 15.1128 33.388 14.2546 34.0205 16.2249Z" fill="#FC227B"/>
<path d="M11.502 5.04738C19.4353 1.46137 26.6943 8.17334 29.3821 15.5525L34.2914 14.0109C26.682 -10.5509 -7.14195 -0.0924709 1.36064 24.3515L6.2699 22.8099C3.61768 15.711 4.60768 8.14186 11.502 5.04738ZM24.1887 33.3049C17.9961 36.0825 11.8412 32.6834 8.20406 26.793L3.15425 28.3783C11.8127 46.6009 39.0835 37.9055 35.4138 18.2489L30.5157 19.7865C31.4304 25.6038 29.5298 30.9071 24.1887 33.3049Z" fill="black"/>
</svg>
