<svg width="22" height="22" viewBox="0 0 22 22" fill="none" xmlns="http://www.w3.org/2000/svg">
<path d="M21.8206 5.51895C21.6728 4.07091 21.1174 2.78852 20.0422 1.7626C18.91 0.681473 17.5269 0.204135 16.0084 0.123985C13.4236 -0.0167221 7.28391 -0.105779 5.12816 0.245099C2.66444 0.645847 1.04985 2.08498 0.368059 4.51975C-0.155303 6.39169 -0.0520576 15.0247 0.254127 16.8753C0.670681 19.4062 2.166 21.0288 4.67423 21.6753C6.40987 22.1242 14.9368 22.0654 16.8504 21.7555C19.3818 21.3458 21.0106 19.8586 21.6693 17.3544C22.173 15.4326 21.9968 7.25196 21.8206 5.51895ZM19.7965 16.5173C19.5028 18.4391 18.2265 19.6306 16.295 19.8426C14.5202 20.0367 6.59678 20.1436 4.95015 19.6841C3.3765 19.2441 2.47575 18.1612 2.21407 16.5743C1.96485 15.0603 1.90254 7.49241 2.21051 5.4673C2.50067 3.56151 3.77525 2.37174 5.69603 2.15622C7.64528 1.93715 14.6573 1.91399 16.5246 2.20075C18.4419 2.49463 19.631 3.77347 19.841 5.70953C20.0369 7.51557 20.0938 14.5759 19.7965 16.5173ZM11.0026 5.35687C7.88739 5.35509 5.36136 7.88069 5.35958 10.9976C5.3578 14.1146 7.88204 16.6419 10.9973 16.6437C14.1125 16.6455 16.6386 14.1199 16.6404 11.003C16.6421 7.88782 14.1179 5.35865 11.0026 5.35687ZM10.9635 14.6471C8.94835 14.6293 7.3302 12.98 7.348 10.9656C7.3658 8.94935 9.01421 7.33033 11.0276 7.34814C13.0427 7.36595 14.6608 9.01525 14.643 11.0297C14.6252 13.0459 12.9786 14.6649 10.9635 14.6471ZM18.1837 5.14492C18.182 5.87517 17.5892 6.46471 16.8593 6.46293C16.1294 6.46115 15.5402 5.86804 15.542 5.13779C15.5438 4.40754 16.1366 3.81799 16.8664 3.81977C17.5963 3.82156 18.1855 4.41466 18.1837 5.14492Z" fill="white"/>
</svg>
