<svg width="636" height="234" viewBox="0 0 636 234" fill="none" xmlns="http://www.w3.org/2000/svg">
<path d="M233.951 10.8765H261.497V200.42H352.208V223.61H233.951V10.8765Z" fill="black"/>
<path d="M482.703 10.8701C456.146 54.1044 395.63 143.633 376.881 187.66L376.183 187.326C379.383 152.992 379.223 112.483 379.161 74.4208H353.357V223.604H381.187C408.647 178.282 467.148 91.0456 488.096 44.5409L489.035 44.8753C486.008 89.2803 487.275 174.454 487.022 223.604H512.825V10.8701H482.703Z" fill="black"/>
<path d="M352.208 71.3858V223.61H379.754V71.3858H352.208ZM352.208 17.1695C352.764 22.5707 349.515 35.8879 358.485 35.8011C364.088 34.9711 379.847 39.1026 379.76 29.508C379.204 24.1068 382.454 10.7897 373.484 10.8764C367.881 11.7064 352.122 7.57495 352.208 17.1695Z" fill="#FC227B"/>
<path d="M636 223.604H608.621V142.586L588.266 119.266L518.552 223.604H486.058L568.862 101.291L492.149 10.8765H526.076C539.556 27.972 596.593 96.3912 607.639 113.419H608.621V10.8765H636V223.604Z" fill="black"/>
<path d="M196.49 116.875C190.869 118.739 122.18 141.533 119.134 142.549L126.517 163.702C129.414 162.736 197.886 139.83 203.261 138.028L196.49 116.875Z" fill="black"/>
<path d="M128.549 139.421L125.337 130.211L106.409 136.188L117.108 166.848L135.925 160.555L128.549 139.421Z" fill="black"/>
<path d="M80.6046 2.05005L61.7877 8.34318L102.986 126.377L121.914 120.406L80.6046 2.05005Z" fill="black"/>
<path d="M101.089 127.014L104.512 136.82L35.2363 158.691L28.2062 160.908L25.1051 151.004L32.129 148.786L101.089 127.014Z" fill="#FC227B"/>
<path d="M35.0018 153.327C38.7207 165.38 22.1463 170.608 18.31 158.598C14.5911 146.544 31.1655 141.31 35.0018 153.327Z" fill="#FC227B"/>
<path d="M199.56 106.543C198.893 106.754 129.766 128.575 126.603 129.579L123.181 119.774C126.294 118.789 195.909 96.8062 196.447 96.6389L199.56 106.543Z" fill="#FC227B"/>
<path d="M206.343 98.9556C210.062 111.009 193.488 116.237 189.651 104.227C185.933 92.1731 202.507 86.9391 206.343 98.9556Z" fill="#FC227B"/>
<path d="M69.7628 30.784C117.88 8.91288 161.908 49.8492 178.21 94.855L207.986 85.4525C161.834 -64.3501 -43.3178 -0.56398 8.25263 148.52L38.0286 139.118C21.9422 95.8213 27.9468 49.6572 69.7628 30.784ZM146.711 203.127C109.151 220.067 71.82 199.336 49.7598 163.411L19.1314 173.079C71.647 284.219 237.052 231.186 214.794 111.3L185.086 120.678C190.633 156.157 179.106 188.503 146.711 203.127Z" fill="black"/>
</svg>
